HIERARCHY
ROOT Hips
{
	OFFSET -3.958830 18.904000 13.208200
	CHANNELS 6 Xposition Yposition Zposition Zrotation Yrotation Xrotation 
	JOINT LHipJoint
	{
		OFFSET 0.000000 0.000000 0.000000
		CHANNELS 3 Zrotation Yrotation Xrotation
		JOINT LeftUpLeg
		{
			OFFSET 1.800000 -1.400000 0.085000
			CHANNELS 3 Zrotation Yrotation Xrotation
			JOINT LeftLeg
			{
				OFFSET 2.215000 -6.000000 0.000000
				CHANNELS 3 Zrotation Yrotation Xrotation
				JOINT LeftFoot
				{
					OFFSET 2.500000 -6.900000 0.000000
					CHANNELS 3 Zrotation Yrotation Xrotation
					JOINT LeftToeBase
					{
						OFFSET 0.200000 -0.500000 1.950000
						CHANNELS 3 Zrotation Yrotation Xrotation
						End Site
						{
							OFFSET 0.000000 0.000000 0.000000
						}
					}
				}
			}
		}
	}
	JOINT RHipJoint
	{
		OFFSET 0.000000 0.000000 0.000000
		CHANNELS 3 Zrotation Yrotation Xrotation
		JOINT RightUpLeg
		{
			OFFSET -1.800000 -1.400000 0.085000
			CHANNELS 3 Zrotation Yrotation Xrotation
			JOINT RightLeg
			{
				OFFSET -2.215000 -6.000000 0.000000
				CHANNELS 3 Zrotation Yrotation Xrotation
				JOINT RightFoot
				{
					OFFSET -2.500000 -6.900000 0.000000
					CHANNELS 3 Zrotation Yrotation Xrotation
					JOINT RightToeBase
					{
						OFFSET -0.200000 -0.500000 1.950000
						CHANNELS 3 Zrotation Yrotation Xrotation
						End Site
						{
							OFFSET 0.000000 0.000000 0.000000
						}
					}
				}
			}
		}
	}
	JOINT LowerBack
	{
		OFFSET 0.000000 0.000000 0.000000
		CHANNELS 3 Zrotation Yrotation Xrotation
		JOINT Spine
		{
			OFFSET -0.087000 1.940000 -0.288900
			CHANNELS 3 Zrotation Yrotation Xrotation
			JOINT Spine1
			{
				OFFSET 0.000000 1.950000 0.060000
				CHANNELS 3 Zrotation Yrotation Xrotation
				JOINT Neck
				{
					OFFSET 0.000000 0.000000 0.000000
					CHANNELS 3 Zrotation Yrotation Xrotation
					JOINT Neck1
					{
						OFFSET 0.000000 1.600000 0.340000
						CHANNELS 3 Zrotation Yrotation Xrotation
						JOINT Head
						{
							OFFSET 0.000000 1.667000 -0.240000
							CHANNELS 3 Zrotation Yrotation Xrotation
							End Site
							{
								OFFSET 0.000000 0.000000 0.000000
							}
						}
					}
				}
				JOINT LeftShoulder
				{
					OFFSET 0.000000 0.000000 0.000000
					CHANNELS 3 Zrotation Yrotation Xrotation
					JOINT LeftArm
					{
						OFFSET 2.700000 1.550000 -0.730000
						CHANNELS 3 Zrotation Yrotation Xrotation
						JOINT LeftForeArm
						{
							OFFSET 5.450000 0.000000 0.000000
							CHANNELS 3 Zrotation Yrotation Xrotation
							JOINT LeftHand
							{
								OFFSET 3.450000 0.000000 0.000000
								CHANNELS 3 Zrotation Yrotation Xrotation
								JOINT LeftHandIndex1
								{
									OFFSET 0.750000 0.000000 0.000000
									CHANNELS 3 Zrotation Yrotation Xrotation
									End Site
									{
										OFFSET 0.000000 0.000000 0.000000
									}
								}
							}
						}
					}
				}
				JOINT RightShoulder
				{
					OFFSET 0.000000 0.000000 0.000000
					CHANNELS 3 Zrotation Yrotation Xrotation
					JOINT RightArm
					{
						OFFSET -2.700000 1.550000 -0.730000
						CHANNELS 3 Zrotation Yrotation Xrotation
						JOINT RightForeArm
						{
							OFFSET -5.450000 0.000000 0.000000
							CHANNELS 3 Zrotation Yrotation Xrotation
							JOINT RightHand
							{
								OFFSET -3.450000 0.000000 0.000000
								CHANNELS 3 Zrotation Yrotation Xrotation
								JOINT RightHandIndex1
								{
									OFFSET -0.750000 0.000000 0.000000
									CHANNELS 3 Zrotation Yrotation Xrotation
									End Site
									{
										OFFSET 0.000000 0.000000 0.000000
									}
								}
							}
						}
					}
				}
			}
		}
	}
}
MOTION
Frames: 4
Frame Time: 0.016667
-0.609550 16.241270 -1.139600 -4.740961 -38.587605 7.661449 -15.052989 13.557988 2.442371 8.248532 -1.229296 -6.864069 -3.073227 4.842286 10.702310 -0.314017 4.335503 3.415563 0.309010 0.095500 0.140880 18.357917 -10.798351 2.906470 -4.030368 2.241551 -21.812921 6.854871 -3.828488 9.691649 0.212739 -2.960927 3.462804 0.252110 0.746530 0.371800 -3.712239 -1.659809 -6.443387 9.680939 -5.172467 2.283260 -2.164551 -5.814975 4.419048 1.314597 -1.449504 -6.241056 -2.134137 6.479633 17.904371 -3.280810 6.789870 2.479340 -18.194095 7.022523 2.244366 -57.185063 -13.399041 14.188124 134.663991 -67.945292 -121.759947 -4.215646 3.535288 -0.115680 0.651380 -0.380440 0.373300 16.146375 -6.988422 1.495772 57.926621 10.159102 7.021318 -140.780489 54.712262 -120.497751 1.868562 -2.424895 -0.220200 0.111820 -0.116510 0.032750 
-0.610190 16.241930 -1.139370 -4.732685 -38.535884 7.558890 -15.054081 13.558923 2.441193 8.254207 -1.228587 -6.778243 -3.025445 4.832014 10.708329 -0.320106 4.340003 3.410813 0.318040 0.105770 0.149380 18.356361 -10.804329 2.902823 -4.066090 2.211887 -21.699853 6.885232 -3.842795 9.687813 0.208434 -2.973547 3.454888 0.260490 0.742040 0.374580 -3.706121 -1.653340 -6.442988 9.633710 -5.143771 2.296134 -2.207076 -5.790259 4.612902 1.410357 -1.371231 -6.239468 -2.006765 6.353209 17.997766 -3.376260 6.787160 2.334680 -18.027337 6.936761 2.197629 -57.497609 -14.244083 14.930361 133.652402 -66.714977 -119.237599 -4.221903 3.497515 -0.116000 0.652180 -0.378040 0.371990 15.799443 -6.969909 1.525532 57.961629 10.607437 7.354077 -140.565729 53.566400 -118.897654 1.858768 -2.425345 -0.218260 0.111100 -0.118420 0.029810 
-0.611540 16.243310 -1.138830 -4.768030 -38.509827 7.317335 -15.053996 13.562301 2.438095 8.281187 -1.213569 -6.522773 -2.910731 4.816396 10.740859 -0.329242 4.353190 3.402197 0.332150 0.124950 0.160890 18.354753 -10.823180 2.895859 -4.073692 2.149668 -21.422482 6.878849 -3.861451 9.706348 0.200620 -2.997411 3.441501 0.276710 0.736070 0.376140 -3.699167 -1.630233 -6.444295 9.588405 -5.085597 2.355914 -2.388524 -5.743564 5.119557 1.652586 -1.204239 -6.299368 -1.742223 6.170882 18.260631 -3.490320 6.820280 2.107320 -17.650052 6.621113 2.164339 -58.013620 -15.931183 16.251366 131.983730 -64.155310 -114.441639 -4.227330 3.423488 -0.115960 0.653060 -0.373690 0.371490 14.957453 -6.802200 1.673028 58.113798 11.549806 7.983646 -140.063224 51.450673 -115.787201 1.843279 -2.424357 -0.217760 0.113120 -0.122540 0.026420 
-0.613290 16.243760 -1.136830 -4.765984 -38.560699 6.982148 -15.057116 13.568110 2.437639 8.261497 -1.182526 -6.138103 -2.790475 4.798603 10.744898 -0.338211 4.379336 3.391658 0.353510 0.155510 0.173110 18.350690 -10.843416 2.882111 -4.107461 2.072156 -21.109138 6.845336 -3.888878 9.819645 0.191296 -3.033898 3.421899 0.302800 0.737450 0.382060 -3.685045 -1.613865 -6.441763 9.492931 -4.997659 2.403572 -2.664420 -5.668091 5.848748 1.945324 -1.008953 -6.403176 -1.436038 5.955710 18.502300 -3.568810 6.795170 1.897400 -16.782237 6.278465 2.143189 -58.704341 -18.297850 18.022817 130.142932 -60.796142 -108.362115 -4.232387 3.347647 -0.124780 0.661250 -0.371800 0.375680 13.533873 -6.643803 1.886043 58.215855 12.764357 8.816440 -139.350873 48.981676 -111.800778 1.819164 -2.434993 -0.214660 0.119120 -0.127580 0.026840 
